<?xml version="1.0" encoding="UTF-8"?>
<svg width="483px" height="453px" viewBox="0 0 483 453" version="1.1" xmlns="http://www.w3.org/2000/svg" xmlns:xlink="http://www.w3.org/1999/xlink">
    <!-- Generator: Sketch 55.2 (78181) - https://sketchapp.com -->
    <title>my guy</title>
    <desc>Created with Sketch.</desc>
    <g id="Page-1" stroke="none" stroke-width="1" fill="none" fill-rule="evenodd">
        <g id="my-guy">
            <g id="Group">
                <ellipse id="Oval" fill="#037AFF" transform="translate(128.684930, 36.303890) rotate(-31.000000) translate(-128.684930, -36.303890) " cx="128.68493" cy="36.3038897" rx="6.00565131" ry="5.99360282"></ellipse>
                <ellipse id="Oval" fill="#FF5700" transform="translate(128.684930, 17.345740) rotate(33.000000) translate(-128.684930, -17.345740) " cx="128.68493" cy="17.3457399" rx="6.00485129" ry="6.99347308"></ellipse>
                <polygon id="Left-arrow" fill="#037AFF" points="357.490991 25.3323717 352.818837 35.416632 332.503773 22.1346214 348.165331 2.7191193 357.490991 7.90153787 348.165331 19.0678757"></polygon>
                <path d="M367.81324,10.1564676 C368.640622,3.3854892 369.054313,0 369.054313,0 C383.853266,8.65524418 391.252742,12.9828663 391.252742,12.9828663 C379.152796,25.7628645 373.102823,32.1528636 373.102823,32.1528636 C369.840257,26.1988589 368.208974,23.2218565 368.208974,23.2218565 L377.586433,16.1352292 C371.070971,12.1493881 367.81324,10.1564676 367.81324,10.1564676 Z" id="Right-arrow" fill="#FF5700"></path>
                <polygon id="Path" fill="#6A6B6E" points="399.683338 48.8719401 402.635808 65.8200168 339.005423 68.5205685 335.624068 53.8459892"></polygon>
                <path d="M410.987672,48.8719401 C411.480786,59.3303029 411.727343,64.5594842 411.727343,64.5594842 C439.019904,63.8346608 452.666185,63.4722491 452.666185,63.4722491 L450.958932,48.2241378 C424.311425,48.656006 410.987672,48.8719401 410.987672,48.8719401 Z" id="Path-2" fill="#6A6B6E"></path>
                <path d="M339.885984,82.341039 C341.21753,91.0815566 341.883304,95.4518153 341.883304,95.4518153 C383.980343,95.4545661 405.028862,95.4559415 405.028862,95.4559415 L402.561219,78.6646577 C360.777729,78.6646577 339.885984,79.8901182 339.885984,82.341039 Z" id="Path-3" fill="#6A6B6E"></path>
                <path d="M417.841545,91.9941189 C433.655733,90.4591987 441.562827,89.6917386 441.562827,89.6917386 C441.24099,81.3940923 441.080072,77.2452692 441.080072,77.2452692 L414.462262,77.684702 C416.715118,87.2243132 417.841545,91.9941189 417.841545,91.9941189 Z" id="Path-4" fill="#037AFF"></path>
                <path d="M384.935493,119.391618 C382.849771,110.768008 381.806911,106.456203 381.806911,106.456203 C397.511978,105.11246 405.364512,104.440588 405.364512,104.440588 L406.818991,117.673085 C392.229992,118.818774 384.935493,119.391618 384.935493,119.391618 Z" id="Path-5" fill="#FF5700"></path>
                <path d="M419.917598,117.543112 C418.373335,107.986997 417.601204,103.208939 417.601204,103.208939 C461.02979,100.433429 482.744082,99.0456741 482.744082,99.0456741 L480.549931,115.816327 C440.128376,116.967517 419.917598,117.543112 419.917598,117.543112 Z" id="Path-6" fill="#6A6B6E"></path>
                <path d="M391.248598,145.590477 C388.955686,136.946236 387.80923,132.624115 387.80923,132.624115 C401.960366,130.35887 409.035934,129.226248 409.035934,129.226248 L411.391694,145.532711 C397.962963,145.571222 391.248598,145.590477 391.248598,145.590477 Z" id="Path-7" fill="#6A6B6E"></path>
                <path d="M402.559147,230.254527 C417.892652,216.576408 425.559405,209.737348 425.559405,209.737348 L431.37318,243.534475 C412.163825,234.681176 402.559147,230.254527 402.559147,230.254527 Z" id="Path-8" fill="#037AFF"></path>
                <ellipse id="Oval" fill="#6A6B6E" transform="translate(434.317710, 299.223493) rotate(3.000000) translate(-434.317710, -299.223493) " cx="434.31771" cy="299.223493" rx="7.01444096" ry="6.48575917"></ellipse>
                <path d="M18.882731,63.9078251 C19.7692144,72.6410724 20.2124561,77.0076961 20.2124561,77.0076961 C46.9815041,75.8226878 60.3660281,75.2301837 60.3660281,75.2301837 L60.3215981,61.7005498 C32.6956867,63.1720667 18.882731,63.9078251 18.882731,63.9078251 Z" id="Path-9" fill="#6A6B6E"></path>
                <path d="M70.0977751,60.1173788 C112.910268,58.9070904 134.316515,58.3019462 134.316515,58.3019462 C133.891257,66.6633643 133.678628,70.8440733 133.678628,70.8440733 C132.756177,72.3745772 132.294952,73.1398292 132.294952,73.1398292 L71.0434984,74.843081 C70.4130162,65.0259462 70.0977751,60.1173788 70.0977751,60.1173788 Z" id="Path-10" fill="#6A6B6E"></path>
                <path d="M36.2294549,91.3857958 C52.5204385,89.8321184 60.6659303,89.0552797 60.6659303,89.0552797 C61.3683467,98.858721 61.7195549,103.760442 61.7195549,103.760442 L37.7956108,104.583627 C36.7515069,95.785073 36.2294549,91.3857958 36.2294549,91.3857958 Z" id="Path-11" fill="#FF5700"></path>
                <path d="M71.3370535,104.624708 C70.0073284,94.6263983 69.3424658,89.6272436 69.3424658,89.6272436 C110.462389,85.4812949 132.238357,83.7901565 134.670368,84.5538284 C138.318385,85.6993364 131.790355,97.0122149 131.790355,99.7788141 C131.790355,102.545413 71.3370535,104.624708 71.3370535,104.624708 Z" id="Path-12" fill="#6A6B6E"></path>
                <path d="M69.502731,116.331009 C69.4784003,126.249264 69.466235,131.208392 69.466235,131.208392 C83.8181684,130.612201 90.9941351,130.314106 90.9941351,130.314106 C92.5206214,129.207045 93.2838646,128.653514 93.2838646,128.653514 L93.9582478,115.199721 C77.65457,115.953913 69.502731,116.331009 69.502731,116.331009 Z" id="Path-13" fill="#6A6B6E"></path>
                <path d="M0,120.157796 C0.761656375,130.127665 1.83114887,135.112599 3.20847748,135.112599 C41.5494131,132.206432 60.7198809,130.753349 60.7198809,130.753349 L62.233673,116.155628 C20.7445577,118.82374 0,120.157796 0,120.157796 Z" id="Path-14" fill="#6A6B6E"></path>
                <path d="M68.8346949,144.197662 C69.3826644,153.391219 69.6566491,157.987998 69.6566491,157.987998 C82.5307575,157.976411 88.9678118,157.970618 88.9678118,157.970618 L89.0963413,143.605158 C75.588577,144.000161 68.8346949,144.197662 68.8346949,144.197662 Z" id="Path-15" fill="#007AFF"></path>
                <ellipse id="Oval" fill="#6A6B6E" transform="translate(44.510656, 241.850145) rotate(-45.000000) translate(-44.510656, -241.850145) " cx="44.5106556" cy="241.850145" rx="8.99944082" ry="7.99951184"></ellipse>
                <path d="M54.6099572,329.215198 C68.2490106,318.957656 75.0685373,313.828885 75.0685373,313.828885 L89.1140765,334.293376 C66.1113303,330.907924 54.6099572,329.215198 54.6099572,329.215198 Z" id="Path-16" fill="#037AFF"></path>
                <path d="M56.5616634,387.30914 C62.4402569,374.495807 75.1974109,364.455617 94.8331253,357.188572 C124.286697,346.288004 243.825444,339.049302 243.825444,339.049302 C338.064753,334.67152 389.452402,333.482899 397.988392,335.483439 C422.200631,339.970941 434.998187,345.600432 436.381062,352.371914 C437.763936,359.143396 434.627552,368.834314 426.97191,381.444668 C408.61865,399.0326 395.564423,409.41749 387.80923,412.599336 C376.176441,417.372106 340.937936,434.946324 325.847526,438.849572 C310.757116,442.75282 298.112906,437.420484 292.735673,432.968642 C287.35844,428.516799 286.049944,420.529266 278.490965,420.529266 C270.931986,420.529266 262.268977,424.459944 250.591061,428.714293 C238.913145,432.968642 188.951226,452.924765 175.676183,452.924765 C162.401139,452.924765 134.791209,450.830871 131.867714,444.840222 C128.944218,438.849572 126.686838,432.968642 129.056125,428.714293 C130.540793,423.527835 137.284079,423.527835 137.284079,420.529266 C137.284079,417.530698 137.284079,414.318541 131.867714,414.318541 C126.451348,414.318541 115.327019,414.621347 105.030889,415.270216 C101.349793,415.502201 98.2079054,415.74725 93.9454797,415.270216 C85.4420024,414.318541 70.5756558,409.596403 62.233673,402.093756 C56.0801084,396.559338 56.5616634,387.30914 56.5616634,387.30914 Z" id="puddle" fill="#6A6B6E"></path>
            </g>
            <path d="M112.935633,275.051724 C108.040087,280.240953 106.172825,287.08431 107.333844,295.581794 L109.628314,302.18332 C112.057562,309.431642 116.47096,315.673859 122.868508,320.909971 C127.943469,325.063604 134.352651,330.59115 142.996906,337.333351 C144.498761,338.504743 146.958069,340.323192 150.374831,342.788699 C154.031606,345.588203 158.067236,348.4057 162.481719,351.241189 C166.896203,354.076679 174.690402,359.057983 185.864319,366.185101 L172.113019,375.877842 C165.901587,379.946757 161.197248,382.884503 158,384.691078 C154.802752,386.497654 151.867012,388.297743 149.192778,390.091346 C147.106027,392.711355 146.062652,395.220667 146.062652,397.619283 C145.88506,401.153945 146.446281,404.270017 147.746317,406.9675 C149.840534,409.494589 151.528685,411.444947 152.810772,412.818573 C154.092858,414.1922 156.151918,415.220982 158.987951,415.904922 C160.530542,416.884631 162.139547,417.558052 163.814965,417.925185 C165.490383,418.292317 168.663148,417.882583 173.333259,416.695981 C175.592853,415.0348 177.458784,413.742331 178.931052,412.818573 C180.40332,411.894815 181.649663,410.224364 182.670083,407.807219 L186.47437,403.071462 L198.95254,392.419999 C199.200106,395.784391 199.200106,398.042043 198.95254,399.192953 C198.704973,400.343863 198.133546,402.215167 197.238259,404.806865 L194.392706,410.835467 C193.518067,413.514385 194.091476,415.890718 197.238259,417.729315 C203.165775,421.248801 209.049391,420.860514 214.902195,417.729315 C222.179004,414.266762 227.337329,408.908844 231.345217,401.241748 C232.923576,392.140746 234.198552,385.852373 235.170142,382.376628 C262.155173,379.536691 275.705189,377.860793 275.82019,377.348933 C305.456922,375.205913 324.846939,373.085535 333.990242,370.987799 C348.324809,366.967266 357.735538,361.802808 362.222429,355.494424 C366.545258,350.6127 368.97988,346.377459 369.526293,342.788699 C370.116768,336.530279 367.682147,328.160358 362.222429,317.678935 C352.6282,303.099384 345.834781,294.414326 341.842173,291.623762 C335.067333,285.714201 331.080738,282.665569 329.882388,282.477865 C230.302372,284.454311 180.512363,285.442534 180.512363,285.442534 C177.242183,283.799172 175.607093,282.977491 175.607093,282.977491 C170.365613,276.792317 166.434904,272.765037 163.814965,270.895651 C155.311435,264.828186 148.337762,263.520196 148.337762,263.520196 C140.676585,261.047158 132.908115,261.591453 125.032352,265.15308 C115.108865,268.939765 116.290826,271.047983 112.935633,275.051724 Z" id="Legs-outline" fill="#444656"></path>
            <path d="M126.221854,264 C120.870921,265.721465 115.727476,267.704436 112.818082,272.503077 C107.728773,277.704205 105.596186,283.760641 105.562652,290.424392 C106.533139,296.63268 106.851777,302.781174 111.41991,309.319696 C115.028653,313.516537 116.664915,316.548521 123.107235,322.418742 C128.400201,326.276091 130.718258,328.908723 136.679198,333.041065 L148.51494,342.524536 L163.216351,352.641125 L174.262838,359.547532 L186.562652,367 C186.368531,365.643214 186.402097,364.53553 185.214747,362.092098 C182.091867,357.429538 179.459143,356.082114 176.677299,353.726129 C171.508642,349.980543 165.578126,345.036006 160.667767,341.696906 L144.038837,330.94388 L129.321226,318.625971 L117.222716,307.003091 C115.680318,305.159107 114.358618,303.157281 113.257616,300.997612 C112.548907,295.98765 112.358085,292.472732 112.685149,290.452857 C113.470514,286.786361 113.863197,284.953113 113.863197,284.953113 C114.399999,282.49206 115.581875,279.30829 117.245586,275.584689 L126.221854,264 Z" id="Left-leg-shadow" fill="#2F2F3C"></path>
            <path d="M182.462274,369 C173.779487,372.529925 172.265923,376.766993 163.640108,380.302537 L150.218715,387.144253 C147.507124,389.30955 145.658047,391.635865 144.481344,394.0877 C143.565675,399.095662 144.184229,400.962626 144.481344,403.48767 C147.19281,406.715529 149.587656,409.14504 152.295293,412.363244 C154.103994,415.355056 156.950933,416.930789 159.593707,417.902032 C161.274401,418.519702 162.06273,419.218013 164.178438,419.763907 C166.715399,420.082433 169.291181,420.07494 171.903109,419.763907 C175.06532,418.16597 177.77968,416.044146 179.835969,413.152525 C180.712986,411.36813 182.007478,409.946776 182.670083,407.807219 C190.890028,399.651825 195,395.574129 195,395.574129 C186.845906,402.54688 182.768859,406.033256 182.768859,406.033256 C180.124446,409.160181 178.802239,410.723643 178.802239,410.723643 C174.710376,413.03723 172.664444,414.194023 172.664444,414.194023 C164.781352,413.735913 160.839805,413.506857 160.839805,413.506857 C155.082932,410.232262 152.204495,408.594964 152.204495,408.594964 C148.623735,404.26697 146.833354,402.102973 146.833354,402.102973 C147.427531,397.209123 147.724619,394.762198 147.724619,394.762198 C150.33864,391.31997 151.64565,389.598856 151.64565,389.598856 C160.223974,385.087362 164.513137,382.831615 164.513137,382.831615 C168.648309,380.132089 170.715896,378.782326 170.715896,378.782326 L174.603875,375.636334 L182.462274,369 Z" id="Left-foot-shadow" fill="#2F2F3C"></path>
            <path d="M194.828124,409.944084 C194.486497,410.754125 194.254065,411.399577 194.130829,411.880441 C194.007592,412.361305 194.007592,413.045846 194.130829,413.934063 C194.110682,414.780022 194.273085,415.442855 194.61804,415.922561 C194.962994,416.402267 195.420855,416.993082 195.991622,417.695007 C197.055308,418.217545 197.953049,418.695028 198.684846,419.127455 C199.416644,419.559883 200.482141,420.086227 201.88134,420.706488 C202.876407,421.071446 203.815013,421.297575 204.697156,421.384875 C205.5793,421.472175 206.925663,421.472175 208.736245,421.384875 C210.216258,421.129716 211.288494,420.903586 211.952952,420.706488 C212.617411,420.509389 213.455556,420.168841 214.467389,419.684843 C216.066265,418.851399 217.24246,418.18812 217.995973,417.695007 C218.749487,417.201893 219.48964,416.611077 220.216431,415.922561 C221.574494,414.781511 222.570685,413.923175 223.205003,413.347552 C223.839322,412.77193 224.620991,412.01692 225.550012,411.08252 C226.680443,409.7587 227.523423,408.711582 228.078952,407.941168 C228.63448,407.170753 229.390255,406.000696 230.346275,404.430996 C231.072468,402.797312 231.60789,401.418211 231.952541,400.293696 C232.297191,399.16918 232.70414,397.473544 233.173386,395.206786 C233.429422,393.796542 233.609784,392.709755 233.714471,391.946425 C233.819157,391.183095 234.076717,390.030013 234.487149,388.487177 C234.647089,387.080549 234.777826,386.034011 234.879359,385.347563 C234.980892,384.661115 234.980892,383.939422 234.879359,383.182485 L234.097604,379.305124 L232.162343,374.77893 L230.346275,371.293866 L228.078952,367.233403 L225.550012,362.792023 L223.205003,357.861041 L221.093048,352.546555 L218.376752,347.263802 L221.848569,344.52239 L232.162343,340.793388 L249.147854,332.755678 L262.377086,326.988031 L281.06747,322.634433 L300.880853,319.994798 L314.242225,315.103676 L323.736884,307.238175 L326.72241,296.572053 L176.72241,283.45035 C182.726159,291.486798 187.07437,297.471304 189.767043,301.403868 C192.459716,305.336433 195.767173,310.532792 199.689415,316.992944 L214.467389,345.895031 L225.550012,369.992681 L229.291821,376.791259 L230.346275,382.270075 L229.291821,391.946425 C228.852735,394.257485 228.448445,396.034263 228.078952,397.276761 C227.709458,398.519258 227.068306,400.257994 226.155495,402.492968 C225.074013,404.249088 224.090516,405.682627 223.205003,406.793586 C222.31949,407.904546 221.373602,408.989372 220.367337,410.048066 C219.349104,411.0988 218.362682,411.930372 217.408069,412.542782 C216.453457,413.155191 215.134312,413.907826 213.450634,414.800687 C211.385183,415.981567 209.81372,416.748267 208.736245,417.100785 C207.658769,417.453304 206.04152,417.616365 203.884497,417.589968 L198.684846,416.552575 L196.244636,414.800687 L195.600691,413.347552 L195.600691,408.491259 L194.828124,409.944084 Z" id="Main-legs-shadow" fill="#2F2F3C"></path>
            <path d="M248,381.060881 C253.959627,377.134872 261.907834,373.700478 268.238064,371.857207 C278.520759,369.892326 287.446905,369.42709 297.941384,367.228084 C312.217165,365.553717 327.10288,363.675843 342.880403,361.500417 C348.285921,358.981845 352.202904,357.06918 354.631352,355.762422 C357.664792,354.130116 361.363377,351.604999 365.727106,348.187073 C366.982502,345.945449 367.405527,341.831375 368.115407,338.808008 C367.965187,337.558526 367.803771,336.75908 367.63116,336.40967 C365.658504,332.416495 363.279676,327.088816 359.833818,320.574848 C358.842573,318.701024 357.108418,315.68032 354.631352,311.512737 L328.728467,281 C335.963915,286.617165 341.27562,291.027112 344.663582,294.229841 C348.051544,297.43257 351.097454,300.923295 353.801311,304.702015 C358.925034,311.906222 362.483479,317.197167 364.476648,320.574848 C366.469816,323.95253 368.031303,327.788976 369.161108,332.084184 C369.638127,334.027912 369.896367,335.685655 369.935828,337.057414 C369.975289,338.429174 369.825211,340.5314 369.485593,343.364094 C369.388975,344.82527 369.280813,345.97848 369.161108,346.823725 C369.041404,347.668971 368.531421,348.855713 367.63116,350.383954 L362.308417,356.110142 C359.006789,359.019755 356.614506,361.025309 355.131569,362.126802 C353.648631,363.228296 351.506189,364.398384 348.704242,365.637066 C343.672898,368.076501 339.860243,369.654201 337.266278,370.370167 C333.366076,371.44667 327.437478,372.557673 319.480487,373.703176 C297.24739,376.302692 273.033307,379.429194 248,381.060881 Z" id="Right-leg-shadow" fill="#2F2F3C"></path>
            <g id="arms" transform="translate(110.000000, 123.000000)">
                <path d="M0.678193818,130.171129 C-1.45653863,123.591821 1.44830888,112.965067 9.39273634,98.2908676 C17.3371638,83.616668 24.373415,67.6987211 30.50149,50.5370267 C34.9260361,32.7661306 41.772387,17.1189724 57.3584729,9.13589386 C66.869658,4.94903884 76.3869595,2.84099242 85.9289844,9.13589386 C103.364303,17.1351922 113.39738,18.9161487 128.84609,25.2465732 L163.439277,12.5826972 C174.777848,-0.759325274 184.345144,0.249613765 194.067778,-2.84217094e-14 C201.436839,0.602312187 208.418547,2.48940735 213.965334,9.13589386 C228.958569,29.927632 236.604659,47.1030496 245.8905,65.0855647 C253.74459,79.4735137 261.184463,94.2277828 263.556738,113.463677 C263.450318,122.846604 263.820804,124.790881 254.12904,139.38162 L226.221122,164.740088 L47.8013274,156.624413 L8.76315272,139.38162 C4.95749421,136.963911 2.0683235,134.007819 0.678193818,130.171129 Z" id="Arms-outer" fill="#A9CEFC"></path>
                <path d="M69.6070917,82.370044 C63.7050893,93.8738251 48.3630727,91.2555892 50.3609736,114.577421 C53.8864021,123.463579 58.4681919,127.48507 60.2197313,128.417161 C61.9712707,129.349252 63.3966334,125.857458 69.6070917,133.044172 L217.381943,129.695581 C222.756795,121.344785 222.756795,122.606328 223.533191,120.773979 C224.361043,118.820189 225.681157,116.363532 226.909719,112.373411 C229.141574,105.124792 226.657482,100.760539 225.041713,97.6687777 C221.198305,90.3144494 214.321244,85.183905 209.309338,82.370044 L69.6070917,82.370044 Z" id="Arms-inner" fill="#83B5F3"></path>
            </g>
            <g id="Laptop" transform="translate(150.000000, 177.000000)">
                <path d="M33.5085005,120.184632 C17.1519446,66.2632105 6.80844374,30.0707907 2.47799786,11.6073723 C124.142451,7.67866985 184.974677,5.7143186 184.974677,5.7143186 C182.773553,54.8184724 179.930178,92.4743223 176.444554,118.681868 C167.523414,120.901308 36.1808512,119.310044 33.5085005,120.184632 Z" id="Path-17" fill="#E8E8E8"></path>
                <path d="M2.47799786,11.6073723 C0.825999288,7.9586304 -1.42108547e-14,6.13425942 -1.42108547e-14,6.13425942 C93.1736452,2.46469395 155.127064,0.419940815 185.860255,-1.59872116e-14 C185.791998,2.20035104 185.496805,4.24510418 184.974677,6.13425942" id="Path-18" fill="#CCCCCC"></path>
                <ellipse id="Oval" fill="#FFFFFF" transform="translate(98.217476, 60.405009) rotate(-10.000000) translate(-98.217476, -60.405009) " cx="98.2174758" cy="60.405009" rx="12" ry="15"></ellipse>
            </g>
            <path d="M208.623846,128.396738 L204.012776,128.396738 C198.528054,123.966461 192.861036,120.498531 188.890835,108.073059 C187.280193,100.530064 184.872105,93.0826572 188.890835,84.8648787 C189.657286,82.493255 190.351546,80.2268537 192.527095,78.3408055 C191.389488,74.1489698 190.809199,69.9872499 192.527095,65.9497165 C194.10273,54.8543301 196.750673,44.1292316 208.623846,36.5897719 C216.966545,30.2959646 223.320389,33.621941 229.663463,36.5897719 C235.887821,45.4842214 239,49.9314462 239,49.9314462 C240.662499,52.3199031 242.694697,52.5888478 245.096597,50.7382802 C247.446225,48.0929 249.163977,46.4380744 250.249853,45.7738036 C253.168498,43.9883594 255.7245,44.2367955 255.7245,44.2367955 C260.029599,43.6018532 262.702524,44.9663113 263.743273,48.3301699 C264.003039,51.9622996 264.132922,53.7783645 264.132922,53.7783645 C267.10356,50.9443181 269.630997,50.4748123 271.715233,52.3698472 C274.813236,52.8005117 276.914309,55.9883779 278.018452,61.9334457 C278.951504,70.066396 279.670679,73.9403923 280.175975,73.5554347 C282.108283,77.6277638 283.060145,80.2562778 283.031562,81.4409765 C283.822302,89.7394112 283.822302,95.3637349 283.031562,98.3139474 C282.385256,108.229683 281.573832,113.954625 280.597291,115.488771 C279.064456,120.342014 276.495105,123.515249 272.979181,125.154257 L208.623846,128.396738 Z" id="hair" fill="#BDB580"></path>
            <path d="M242.936551,163.779372 C236.915705,163.108989 231.817071,161.981099 228.556461,159.941367 C221.400532,156.138511 215.613457,151.998198 211.618845,147.415999 C208.985872,140.62091 208.008677,131.870281 208.008677,126.393797 C205.168017,120.875226 203.530472,116.493175 203.096041,113.247645 C202.676639,109.396657 203.630855,108.068183 205.958688,109.262223 C207.952828,110.851821 208.949898,111.646619 208.949898,111.646619 C208.883617,98.2384588 208.850476,91.5343785 208.850476,91.5343785 C220.612572,94.4447189 226.716696,95.1138127 227.162849,93.54166 C230.331553,101.94662 235.12663,105.223523 241.548081,103.372368 C253.089191,98.2164083 261.197168,92.0922855 265.872013,85 C269.300334,98.7144239 271.014494,105.571636 271.014494,105.571636 C273.665622,104.906568 275.102659,105.300664 275.325607,106.753925 C276.06026,111.582829 276.06026,114.852214 275.325607,116.562081 C272.591251,123.036855 271.689031,125.967978 272.618948,125.355448 C272.618948,130.98427 272.618948,133.79868 272.618948,133.79868 C271.194499,140.90376 269.512337,145.667993 267.57246,148.091378 C264.134706,153.752576 259.630248,158.157923 254.027167,161.269841 C250.317469,162.084127 247.231908,163.979943 242.936551,163.779372 Z" id="face" fill="#D4C6B4"></path>
        </g>
    </g>
</svg>