<?xml version="1.0" encoding="UTF-8"?>
<svg width="483px" height="453px" viewBox="0 0 483 453" version="1.1" xmlns="http://www.w3.org/2000/svg" xmlns:xlink="http://www.w3.org/1999/xlink">
    <!-- Generator: Sketch 55.2 (78181) - https://sketchapp.com -->
    <title>red on blue</title>
    <desc>Created with Sketch.</desc>
    <g id="Page-1" stroke="none" stroke-width="1" fill="none" fill-rule="evenodd">
        <g id="red-on-blue">
            <g id="surrounding-copy">
                <g id="Group-4" transform="translate(54.609957, 2.719119)" fill="#314766">
                    <ellipse id="Oval" transform="translate(74.074972, 33.584770) rotate(-31.000000) translate(-74.074972, -33.584770) " cx="74.0749723" cy="33.5847704" rx="6.00565131" ry="5.99360282"></ellipse>
                    <polygon id="Left-arrow" points="302.881034 22.6132524 298.20888 32.6975127 277.893816 19.4155021 293.555373 5.32907052e-14 302.881034 5.18241857 293.555373 16.3487564"></polygon>
                    <path d="M363.231588,89.2749996 C379.045776,87.7400794 386.95287,86.9726193 386.95287,86.9726193 C386.631033,78.674973 386.470115,74.5261499 386.470115,74.5261499 L359.852305,74.9655827 C362.10516,84.5051939 363.231588,89.2749996 363.231588,89.2749996 Z" id="Path-4"></path>
                    <path d="M347.94919,227.535408 C363.282695,213.857289 370.949448,207.018229 370.949448,207.018229 L376.763223,240.815355 C357.553868,231.962057 347.94919,227.535408 347.94919,227.535408 Z" id="Path-8"></path>
                    <path d="M14.2247377,141.478543 C14.7727072,150.6721 15.0466919,155.268879 15.0466919,155.268879 C27.9208004,155.257292 34.3578546,155.251499 34.3578546,155.251499 L34.4863841,140.886039 C20.9786199,141.281042 14.2247377,141.478543 14.2247377,141.478543 Z" id="Path-15"></path>
                    <path d="M1.17239551e-13,326.496079 C13.6390534,316.238537 20.4585801,311.109766 20.4585801,311.109766 L34.5041194,331.574256 C11.5013731,328.188805 1.17239551e-13,326.496079 1.17239551e-13,326.496079 Z" id="Path-16"></path>
                </g>
                <g id="Group-3" transform="translate(36.229455, 0.000000)" fill="#E53946">
                    <ellipse id="Oval" transform="translate(92.455475, 17.345740) rotate(33.000000) translate(-92.455475, -17.345740) " cx="92.4554746" cy="17.3457399" rx="6.00485129" ry="6.99347308"></ellipse>
                    <path d="M331.583785,10.1564676 C332.411167,3.3854892 332.824858,-4.26325641e-14 332.824858,-4.26325641e-14 C347.623811,8.65524418 355.023287,12.9828663 355.023287,12.9828663 C342.923341,25.7628645 336.873368,32.1528636 336.873368,32.1528636 C333.610802,26.1988589 331.97952,23.2218565 331.97952,23.2218565 L341.356978,16.1352292 C334.841516,12.1493881 331.583785,10.1564676 331.583785,10.1564676 Z" id="Right-arrow"></path>
                    <path d="M348.706038,119.391618 C346.620316,110.768008 345.577456,106.456203 345.577456,106.456203 C361.282523,105.11246 369.135057,104.440588 369.135057,104.440588 L370.589537,117.673085 C356.000537,118.818774 348.706038,119.391618 348.706038,119.391618 Z" id="Path-5"></path>
                    <path d="M-9.9475983e-14,91.3857958 C16.2909836,89.8321184 24.4364754,89.0552797 24.4364754,89.0552797 C25.1388918,98.858721 25.4901,103.760442 25.4901,103.760442 L1.56615592,104.583627 C0.522051974,95.785073 -9.9475983e-14,91.3857958 -9.9475983e-14,91.3857958 Z" id="Path-11"></path>
                </g>
                <g id="Group-2" transform="translate(0.000000, 48.224138)" fill="#C7E7E8">
                    <polygon id="Path" points="399.683338 0.647802322 402.635808 17.595879 339.005423 20.2964307 335.624068 5.62185136"></polygon>
                    <path d="M410.987672,0.647802322 C411.480786,11.1061651 411.727343,16.3353464 411.727343,16.3353464 C439.019904,15.610523 452.666185,15.2481113 452.666185,15.2481113 L450.958932,-4.26325641e-14 C424.311425,0.431868214 410.987672,0.647802322 410.987672,0.647802322 Z" id="Path-2"></path>
                    <path d="M339.885984,34.1169013 C341.21753,42.8574188 341.883304,47.2276775 341.883304,47.2276775 C383.980343,47.2304283 405.028862,47.2318037 405.028862,47.2318037 L402.561219,30.4405199 C360.777729,30.4405199 339.885984,31.6659804 339.885984,34.1169013 Z" id="Path-3"></path>
                    <path d="M419.917598,69.3189745 C418.373335,59.7628588 417.601204,54.9848009 417.601204,54.9848009 C461.02979,52.2092911 482.744082,50.8215363 482.744082,50.8215363 L480.549931,67.5921894 C440.128376,68.7433795 419.917598,69.3189745 419.917598,69.3189745 Z" id="Path-6"></path>
                    <path d="M391.248598,97.3663394 C388.955686,88.7220982 387.80923,84.3999776 387.80923,84.3999776 C401.960366,82.1347326 409.035934,81.00211 409.035934,81.00211 L411.391694,97.3085736 C397.962963,97.3470841 391.248598,97.3663394 391.248598,97.3663394 Z" id="Path-7"></path>
                    <ellipse id="Oval" transform="translate(434.317710, 250.999355) rotate(3.000000) translate(-434.317710, -250.999355) " cx="434.31771" cy="250.999355" rx="7.01444096" ry="6.48575917"></ellipse>
                    <path d="M18.882731,15.6836873 C19.7692144,24.4169346 20.2124561,28.7835583 20.2124561,28.7835583 C46.9815041,27.59855 60.3660281,27.0060459 60.3660281,27.0060459 L60.3215981,13.476412 C32.6956867,14.9479289 18.882731,15.6836873 18.882731,15.6836873 Z" id="Path-9"></path>
                    <path d="M70.0977751,11.893241 C112.910268,10.6829526 134.316515,10.0778084 134.316515,10.0778084 C133.891257,18.4392265 133.678628,22.6199355 133.678628,22.6199355 C132.756177,24.1504394 132.294952,24.9156914 132.294952,24.9156914 L71.0434984,26.6189432 C70.4130162,16.8018084 70.0977751,11.893241 70.0977751,11.893241 Z" id="Path-10"></path>
                    <path d="M71.3370535,56.4005699 C70.0073284,46.4022605 69.3424658,41.4031058 69.3424658,41.4031058 C110.462389,37.2571571 132.238357,35.5660187 134.670368,36.3296906 C138.318385,37.4751986 131.790355,48.7880771 131.790355,51.5546763 C131.790355,54.3212755 71.3370535,56.4005699 71.3370535,56.4005699 Z" id="Path-12"></path>
                    <path d="M69.502731,68.1068712 C69.4784003,78.0251266 69.466235,82.9842544 69.466235,82.9842544 C83.8181684,82.3880636 90.9941351,82.0899682 90.9941351,82.0899682 C92.5206214,80.9829072 93.2838646,80.4293767 93.2838646,80.4293767 L93.9582478,66.9755833 C77.65457,67.7297752 69.502731,68.1068712 69.502731,68.1068712 Z" id="Path-13"></path>
                    <path d="M5.32907052e-14,71.9336577 C0.761656375,81.9035269 1.83114887,86.8884615 3.20847748,86.8884615 C41.5494131,83.9822947 60.7198809,82.5292112 60.7198809,82.5292112 L62.233673,67.9314899 C20.7445577,70.5996018 5.32907052e-14,71.9336577 5.32907052e-14,71.9336577 Z" id="Path-14"></path>
                    <ellipse id="Oval" transform="translate(44.510656, 193.626007) rotate(-45.000000) translate(-44.510656, -193.626007) " cx="44.5106556" cy="193.626007" rx="8.99944082" ry="7.99951184"></ellipse>
                    <path d="M56.5616634,339.085003 C62.4402569,326.271669 75.1974109,316.23148 94.8331253,308.964434 C124.286697,298.063866 243.825444,290.825164 243.825444,290.825164 C338.064753,286.447382 389.452402,285.258761 397.988392,287.259302 C422.200631,291.746803 434.998187,297.376294 436.381062,304.147776 C437.763936,310.919258 434.627552,320.610176 426.97191,333.22053 C408.61865,350.808462 395.564423,361.193352 387.80923,364.375198 C376.176441,369.147969 340.937936,386.722186 325.847526,390.625434 C310.757116,394.528683 298.112906,389.196346 292.735673,384.744504 C287.35844,380.292661 286.049944,372.305129 278.490965,372.305129 C270.931986,372.305129 262.268977,376.235807 250.591061,380.490155 C238.913145,384.744504 188.951226,404.700627 175.676183,404.700627 C162.401139,404.700627 134.791209,402.606733 131.867714,396.616084 C128.944218,390.625434 126.686838,384.744504 129.056125,380.490155 C130.540793,375.303697 137.284079,375.303697 137.284079,372.305129 C137.284079,369.30656 137.284079,366.094403 131.867714,366.094403 C126.451348,366.094403 115.327019,366.397209 105.030889,367.046079 C101.349793,367.278064 98.2079054,367.523112 93.9454797,367.046079 C85.4420024,366.094403 70.5756558,361.372265 62.233673,353.869618 C56.0801084,348.3352 56.5616634,339.085003 56.5616634,339.085003 Z" id="puddle"></path>
                </g>
            </g>
            <g id="person" transform="translate(105.562652, 33.011021)">
                <g id="arms-copy-2" transform="translate(4.437348, 89.988979)">
                    <path d="M0.678193818,130.171129 C-1.45653863,123.591821 1.44830888,112.965067 9.39273634,98.2908676 C17.3371638,83.616668 24.373415,67.6987211 30.50149,50.5370267 C34.9260361,32.7661306 41.772387,17.1189724 57.3584729,9.13589386 C66.869658,4.94903884 76.3869595,2.84099242 85.9289844,9.13589386 C103.364303,17.1351922 113.39738,18.9161487 128.84609,25.2465732 L163.439277,12.5826972 C174.777848,-0.759325274 184.345144,0.249613765 194.067778,-2.84217094e-14 C201.436839,0.602312187 208.418547,2.48940735 213.965334,9.13589386 C228.958569,29.927632 236.604659,47.1030496 245.8905,65.0855647 C253.74459,79.4735137 261.184463,94.2277828 263.556738,113.463677 C263.450318,122.846604 263.820804,124.790881 254.12904,139.38162 L226.221122,164.740088 L47.8013274,156.624413 L8.76315272,139.38162 C4.95749421,136.963911 2.0683235,134.007819 0.678193818,130.171129 Z" id="Arms-outer" fill="#D8E1E9"></path>
                    <path d="M69.6070917,82.370044 C63.7050893,93.8738251 48.3630727,91.2555892 50.3609736,114.577421 C53.8864021,123.463579 58.4681919,127.48507 60.2197313,128.417161 C61.9712707,129.349252 63.3966334,125.857458 69.6070917,133.044172 L217.381943,129.695581 C222.756795,121.344785 222.756795,122.606328 223.533191,120.773979 C224.361043,118.820189 225.681157,116.363532 226.909719,112.373411 C229.141574,105.124792 226.657482,100.760539 225.041713,97.6687777 C221.198305,90.3144494 214.321244,85.183905 209.309338,82.370044 L69.6070917,82.370044 Z" id="Arms-inner" fill="#9FA7AE"></path>
                </g>
                <path d="M7.37298086,242.040703 C2.47743533,247.229932 0.610172512,254.073288 1.77119242,262.570773 L4.06566241,269.172299 C6.49490967,276.420621 10.9083075,282.662838 17.305856,287.89895 C22.3808168,292.052583 28.7899987,297.580129 37.4342536,304.32233 C38.9361088,305.493722 41.3954172,307.312171 44.8121786,309.777678 C48.4689543,312.577182 52.5045839,315.394678 56.9190672,318.230168 C61.3335505,321.065658 69.1277504,326.046962 80.3016669,333.17408 L66.5503666,342.866821 C60.3389351,346.935736 55.6345956,349.873482 52.437348,351.680057 C49.2401003,353.486633 46.3043595,355.286722 43.6301256,357.080325 C41.5433752,359.700334 40.5,362.209646 40.5,364.608262 C40.3224076,368.142924 40.8836291,371.258996 42.1836646,373.956479 C44.2778815,376.483568 45.9660331,378.433926 47.2481195,379.807552 C48.5302059,381.181178 50.5892657,382.209961 53.425299,382.893901 C54.96789,383.87361 56.5768946,384.547031 58.2523128,384.914164 C59.927731,385.281296 63.1004959,384.871562 67.7706074,383.68496 C70.030201,382.023779 71.8961318,380.73131 73.3683996,379.807552 C74.8406675,378.883794 76.0870114,377.213343 77.1074313,374.796198 L80.9117183,370.060441 L93.3898875,359.408978 C93.6374538,362.77337 93.6374538,365.031022 93.3898875,366.181932 C93.1423212,367.332842 92.5708943,369.204146 91.6756069,371.795844 L88.8300539,377.824446 C87.9554149,380.503364 88.5288241,382.879697 91.6756069,384.718294 C97.6031225,388.23778 103.486739,387.849493 109.339543,384.718294 C116.616352,381.255741 121.774677,375.897823 125.782565,368.230727 C127.360924,359.129725 128.635899,352.841352 129.60749,349.365607 C156.592521,346.52567 170.142537,344.849772 170.257538,344.337912 C199.89427,342.194892 219.284287,340.074514 228.42759,337.976778 C242.762157,333.956245 252.172886,328.791787 256.659777,322.483403 C260.982606,317.601679 263.417228,313.366438 263.963641,309.777678 C264.554116,303.519258 262.119495,295.149337 256.659777,284.667914 C247.065548,270.088363 240.272129,261.403305 236.279521,258.612741 C229.504681,252.70318 225.518086,249.654548 224.319736,249.466844 C124.739719,251.44329 74.9497111,252.431513 74.9497111,252.431513 C71.679531,250.788151 70.0444409,249.96647 70.0444409,249.96647 C64.802961,243.781296 60.8722516,239.754016 58.2523128,237.884629 C49.7487828,231.817165 42.7751095,230.509175 42.7751095,230.509175 C35.1139329,228.036137 27.3454629,228.580432 19.4696996,232.142059 C9.54621284,235.928744 10.7281739,238.036962 7.37298086,242.040703 Z" id="Legs-outline-Copy-2" fill="#444656"></path>
                <path d="M20.6592019,230.988979 C15.3082688,232.710444 10.164824,234.693415 7.25542971,239.492056 C2.16612111,244.693184 0.0335334988,250.74962 0,257.413371 C0.970487442,263.621659 1.289125,269.770153 5.85725789,276.308675 C9.4660012,280.505516 11.1022625,283.5375 17.544583,289.407721 C22.8375485,293.26507 25.1556061,295.897702 31.1165456,300.030044 L42.9522881,309.513515 L57.6536991,319.630104 L68.7001855,326.536511 L81,333.988979 C80.8058787,332.632193 80.8394449,331.524509 79.6520947,329.081077 C76.5292152,324.418517 73.8964906,323.071093 71.1146465,320.715108 C65.94599,316.969522 60.0154741,312.024985 55.1051146,308.685885 L38.4761848,297.932859 L23.7585741,285.61495 L11.660064,273.99207 C10.1176664,272.148086 8.79596644,270.14626 7.69496405,267.986591 C6.98625516,262.976629 6.79543294,259.461711 7.12249738,257.441836 C7.90786225,253.77534 8.30054468,251.942092 8.30054468,251.942092 C8.83734692,249.481039 10.0192232,246.297269 11.6829341,242.573668 L20.6592019,230.988979 Z" id="Left-leg-shadow-Copy-2" fill="#2F2F3C"></path>
                <path d="M76.8996216,335.988979 C68.2168352,339.518904 66.703271,343.755972 58.0774558,347.291516 L44.6560633,354.133232 C41.9444722,356.298529 40.0953952,358.624844 38.9186915,361.076679 C38.0030234,366.084641 38.6215774,367.951605 38.9186915,370.476649 C41.6301575,373.704508 44.0250035,376.134019 46.7326408,379.352223 C48.5413422,382.344035 51.3882809,383.919768 54.0310549,384.891011 C55.7117491,385.508681 56.5000775,386.206992 58.6157856,386.752886 C61.1527468,387.071412 63.7285294,387.063919 66.3404565,386.752886 C69.5026684,385.154949 72.2170279,383.033124 74.2733171,380.141504 C75.1503336,378.357109 76.4448264,376.935755 77.1074313,374.796198 C85.3273757,366.640804 89.437348,362.563108 89.437348,362.563108 C81.2832543,369.535859 77.2062074,373.022234 77.2062074,373.022234 C74.5617939,376.14916 73.2395872,377.712622 73.2395872,377.712622 C69.1477239,380.026209 67.1017923,381.183002 67.1017923,381.183002 C59.2186997,380.724892 55.2771534,380.495836 55.2771534,380.495836 C49.5202797,377.221241 46.6418428,375.583943 46.6418428,375.583943 C43.0610825,371.255949 41.2707024,369.091952 41.2707024,369.091952 C41.8648786,364.198102 42.1619667,361.751177 42.1619667,361.751177 C44.7759876,358.308949 46.082998,356.587835 46.082998,356.587835 C54.6613224,352.076341 58.9504846,349.820594 58.9504846,349.820594 C63.0856574,347.121068 65.1532438,345.771305 65.1532438,345.771305 L69.041223,342.625313 L76.8996216,335.988979 Z" id="Left-foot-shadow-Copy-2" fill="#2F2F3C"></path>
                <path d="M89.2654723,376.933063 C88.9238451,377.743104 88.6914133,378.388556 88.5681768,378.86942 C88.4449404,379.350284 88.4449404,380.034825 88.5681768,380.923042 C88.5480296,381.769001 88.7104332,382.431834 89.0553877,382.91154 C89.4003421,383.391246 89.8582029,383.982061 90.4289701,384.683985 C91.4926559,385.206524 92.3903974,385.684007 93.1221944,386.116434 C93.8539915,386.548862 94.9194892,387.075206 96.3186876,387.695467 C97.3137551,388.060425 98.2523607,388.286554 99.1345042,388.373854 C100.016648,388.461154 101.363011,388.461154 103.173593,388.373854 C104.653606,388.118694 105.725842,387.892565 106.3903,387.695467 C107.054759,387.498368 107.892904,387.15782 108.904737,386.673822 C110.503613,385.840378 111.679808,385.177099 112.433321,384.683985 C113.186835,384.190872 113.926987,383.600056 114.653779,382.91154 C116.011842,381.77049 117.008032,380.912154 117.642351,380.336531 C118.27667,379.760909 119.058339,379.005899 119.98736,378.071499 C121.117791,376.747679 121.960771,375.700561 122.5163,374.930147 C123.071828,374.159732 123.827603,372.989675 124.783623,371.419975 C125.509816,369.786291 126.045238,368.40719 126.389889,367.282675 C126.734539,366.158159 127.141488,364.462523 127.610733,362.195765 C127.86677,360.785521 128.047132,359.698734 128.151819,358.935404 C128.256505,358.172074 128.514065,357.018992 128.924497,355.476156 C129.084437,354.069528 129.215174,353.02299 129.316707,352.336542 C129.41824,351.650094 129.41824,350.928401 129.316707,350.171464 L128.534952,346.294103 L126.599691,341.767909 L124.783623,338.282845 L122.5163,334.222382 L119.98736,329.781002 L117.642351,324.85002 L115.530396,319.535534 L112.8141,314.252781 L116.285917,311.511369 L126.599691,307.782367 L143.585202,299.744657 L156.814434,293.97701 L175.504818,289.623412 L195.318201,286.983777 L208.679573,282.092655 L218.174232,274.227154 L221.159758,263.561032 L71.1597581,250.439329 C77.1635073,258.475777 81.5117183,264.460283 84.2043911,268.392847 C86.8970639,272.325412 90.2045212,277.52177 94.126763,283.981923 L108.904737,312.88401 L119.98736,336.981659 L123.729169,343.780238 L124.783623,349.259054 L123.729169,358.935404 C123.290083,361.246464 122.885793,363.023242 122.5163,364.26574 C122.146806,365.508237 121.505654,367.246973 120.592843,369.481947 C119.511361,371.238067 118.527864,372.671606 117.642351,373.782565 C116.756838,374.893525 115.810949,375.978351 114.804685,377.037045 C113.786452,378.087779 112.80003,378.919351 111.845417,379.531761 C110.890805,380.14417 109.57166,380.896805 107.887982,381.789666 C105.822531,382.970546 104.251068,383.737246 103.173593,384.089764 C102.096117,384.442283 100.478868,384.605344 98.3218446,384.578947 L93.1221944,383.541554 L90.6819838,381.789666 L90.0380393,380.336531 L90.0380393,375.480238 L89.2654723,376.933063 Z" id="Main-legs-shadow-Copy-2" fill="#2F2F3C"></path>
                <path d="M142.437348,348.04986 C148.396975,344.123851 156.345181,340.689457 162.675412,338.846186 C172.958107,336.881305 181.884253,336.416069 192.378732,334.217063 C206.654513,332.542696 221.540228,330.664822 237.317751,328.489396 C242.723269,325.970824 246.640252,324.058159 249.0687,322.751401 C252.10214,321.119095 255.800725,318.593978 260.164454,315.176052 C261.41985,312.934428 261.842875,308.820354 262.552755,305.796987 C262.402535,304.547505 262.241119,303.748059 262.068508,303.398649 C260.095852,299.405474 257.717024,294.077795 254.271166,287.563827 C253.279921,285.690003 251.545766,282.669299 249.0687,278.501716 L223.165815,247.988979 C230.401263,253.606144 235.712968,258.016091 239.10093,261.21882 C242.488892,264.421549 245.534802,267.912274 248.238659,271.690994 C253.362382,278.895201 256.920827,284.186146 258.913995,287.563827 C260.907164,290.941509 262.468651,294.777954 263.598456,299.073163 C264.075475,301.016891 264.333715,302.674634 264.373176,304.046393 C264.412637,305.418153 264.262559,307.520379 263.922941,310.353073 C263.826323,311.814249 263.718161,312.967459 263.598456,313.812704 C263.478752,314.65795 262.968769,315.844692 262.068508,317.372933 L256.745765,323.099121 C253.444137,326.008734 251.051854,328.014288 249.568917,329.115781 C248.085979,330.217275 245.943537,331.387363 243.14159,332.626045 C238.110246,335.06548 234.297591,336.64318 231.703626,337.359146 C227.803424,338.435649 221.874826,339.546652 213.917835,340.692155 C191.684738,343.291671 167.470655,346.418173 142.437348,348.04986 Z" id="Right-leg-shadow-Copy-2" fill="#2F2F3C"></path>
                <g id="Laptop-Copy-2" transform="translate(44.437348, 143.988979)">
                    <path d="M33.5085005,120.184632 C17.1519446,66.2632105 6.80844374,30.0707907 2.47799786,11.6073723 C124.142451,7.67866985 184.974677,5.7143186 184.974677,5.7143186 C182.773553,54.8184724 179.930178,92.4743223 176.444554,118.681868 C167.523414,120.901308 36.1808512,119.310044 33.5085005,120.184632 Z" id="Path-17" fill="#E8E8E8"></path>
                    <path d="M2.47799786,11.6073723 C0.825999288,7.9586304 -1.42108547e-14,6.13425942 -1.42108547e-14,6.13425942 C93.1736452,2.46469395 155.127064,0.419940815 185.860255,-1.59872116e-14 C185.791998,2.20035104 185.496805,4.24510418 184.974677,6.13425942" id="Path-18" fill="#CCCCCC"></path>
                    <ellipse id="Oval" fill="#FFFFFF" transform="translate(98.217476, 60.405009) rotate(-10.000000) translate(-98.217476, -60.405009) " cx="98.2174758" cy="60.405009" rx="12" ry="15"></ellipse>
                </g>
                <path d="M103.061194,95.3857171 L98.450124,95.3857171 C92.9654023,90.9554403 87.2983843,87.4875102 83.3281829,75.0620375 C81.7175411,67.5190425 79.3094528,60.0716361 83.3281829,51.8538577 C84.0946341,49.4822339 84.7888937,47.2158326 86.9644432,45.3297844 C85.8268361,41.1379488 85.2465467,36.9762288 86.9644432,32.9386955 C88.5400776,21.8433091 91.1880212,11.1182105 103.061194,3.57875082 C111.403893,-2.71505643 117.757737,0.610919951 124.100811,3.57875082 C130.325169,12.4732004 133.437348,16.9204252 133.437348,16.9204252 C135.099847,19.3088821 137.132045,19.5778267 139.533945,17.7272591 C141.883573,15.0818789 143.601325,13.4270534 144.687201,12.7627825 C147.605846,10.9773383 150.161848,11.2257745 150.161848,11.2257745 C154.466947,10.5908321 157.139872,11.9552902 158.180621,15.3191489 C158.440387,18.9512786 158.57027,20.7673434 158.57027,20.7673434 C161.540908,17.933297 164.068345,17.4637912 166.152581,19.3588261 C169.250584,19.7894906 171.351657,22.9773568 172.4558,28.9224247 C173.388852,37.0553749 174.108027,40.9293712 174.613323,40.5444136 C176.545631,44.6167428 177.497493,47.2452567 177.46891,48.4299554 C178.25965,56.7283902 178.25965,62.3527138 177.46891,65.3029263 C176.822604,75.2186624 176.01118,80.9436038 175.034639,82.4777504 C173.501804,87.3309933 170.932453,90.504228 167.416529,92.1432359 L103.061194,95.3857171 Z" id="hair-copy-2" fill="#BDB580"></path>
                <path d="M137.373899,130.768351 C131.353053,130.097968 126.254419,128.970078 122.993809,126.930346 C115.83788,123.12749 110.050805,118.987177 106.056193,114.404978 C103.42322,107.609889 102.446025,98.8592597 102.446025,93.3827762 C99.6053654,87.8642045 97.9678198,83.4821537 97.5333886,80.2366239 C97.1139873,76.3856358 98.0682031,75.0571616 100.396036,76.2512016 C102.390176,77.8407994 103.387246,78.6355984 103.387246,78.6355984 C103.320965,65.2274377 103.287824,58.5233574 103.287824,58.5233574 C115.04992,61.4336978 121.154044,62.1027916 121.600197,60.5306389 C124.768901,68.9355992 129.563978,72.212502 135.985429,70.3613474 C147.526539,65.2053872 155.634516,59.0812644 160.309361,51.9889789 C163.737682,65.7034029 165.451842,72.5606148 165.451842,72.5606148 C168.10297,71.8955465 169.540007,72.289643 169.762955,73.7429044 C170.497608,78.5718076 170.497608,81.8411926 169.762955,83.5510596 C167.028599,90.0258344 166.126379,92.9569568 167.056296,92.3444268 C167.056296,97.9732485 167.056296,100.787659 167.056296,100.787659 C165.631847,107.892739 163.949685,112.656972 162.009808,115.080357 C158.572054,120.741555 154.067596,125.146902 148.464515,128.25882 C144.754817,129.073106 141.669256,130.968922 137.373899,130.768351 Z" id="face-copy-2" fill="#D4C6B4"></path>
            </g>
        </g>
    </g>
</svg>